<?xml version="1.0" encoding="UTF-8"?><svg id="a" xmlns="http://www.w3.org/2000/svg" viewBox="0 0 457.75 197.55"><defs><style>.b{fill:#fff;}.c{fill:#94d6dc;}</style></defs><g><path class="b" d="M175.94,156.69c-1.61-1.35-3.54-2.37-5.72-3.03-2.17-.66-4.54-.99-7.04-.99-3.54,0-6.8,.78-9.69,2.33-2.68,1.43-4.87,3.51-6.49,6.18-1.63-2.77-3.84-4.88-6.56-6.26-2.91-1.49-6.24-2.24-9.89-2.24-2.56,0-4.98,.35-7.17,1.03-2.21,.69-4.16,1.74-5.8,3.12-1.65,1.39-2.95,3.12-3.87,5.17-.92,2.04-1.39,4.44-1.39,7.13v26.82c0,.24,.19,.43,.43,.43h5.57c.24,0,.43-.19,.43-.43v-24.2c0-2.41,.3-4.49,.9-6.18,.59-1.67,1.45-3.06,2.55-4.14,1.1-1.07,2.41-1.86,3.88-2.34,1.5-.49,3.17-.74,4.97-.74s3.4,.26,4.92,.78c1.5,.51,2.82,1.33,3.92,2.43,1.1,1.1,1.99,2.55,2.64,4.31,.65,1.77,.98,3.95,.98,6.47v23.61c0,.24,.19,.43,.43,.43h5.57c.24,0,.43-.19,.43-.43v-23.61c0-2.52,.33-4.7,.98-6.47,.65-1.76,1.55-3.21,2.68-4.31,1.13-1.1,2.46-1.92,3.97-2.43,1.52-.52,3.18-.78,4.92-.78,3.58,0,6.55,1.01,8.82,3.01,2.25,1.99,3.4,5.39,3.4,10.13v24.46c0,.24,.19,.43,.43,.43h5.57c.24,0,.43-.19,.43-.43v-27.07c0-2.69-.47-5.08-1.39-7.09-.92-2.02-2.21-3.73-3.82-5.08Z"/><path class="b" d="M224.39,156.48c-1.44-1.21-3.27-2.16-5.42-2.82-2.14-.66-4.67-.99-7.5-.99-3.36,0-6.49,.56-9.31,1.67-2.82,1.11-5.3,2.7-7.35,4.73s-3.68,4.49-4.82,7.31c-1.14,2.82-1.72,5.98-1.72,9.4s.61,6.68,1.81,9.37c1.2,2.69,2.87,4.98,4.96,6.81,2.08,1.83,4.54,3.23,7.31,4.17,2.76,.94,5.74,1.41,8.87,1.41,1.98,0,3.82-.16,5.48-.47,1.64-.31,3.14-.7,4.45-1.15,1.31-.46,2.44-.93,3.35-1.42,.91-.48,1.6-.87,2.05-1.15,.2-.12,.26-.39,.14-.59l-2.45-4.05c-.12-.2-.39-.27-.58-.15-1.04,.6-2.57,1.32-4.54,2.12-1.93,.79-4.33,1.19-7.13,1.19-4.77,0-8.65-1.16-11.54-3.45-2.76-2.18-4.49-5.29-5.16-9.23,1.44,.09,2.83,.15,4.16,.18,1.46,.03,3.08,.04,4.94,.04,4.68,0,8.61-.33,11.68-.98,3.1-.65,5.61-1.58,7.48-2.76,1.89-1.19,3.25-2.61,4.04-4.22,.78-1.6,1.18-3.38,1.18-5.29s-.37-3.71-1.09-5.36c-.73-1.66-1.83-3.11-3.28-4.33Zm-13.26,1.43c1.42,0,2.83,.14,4.17,.41,1.33,.27,2.53,.72,3.58,1.34,1.03,.61,1.86,1.42,2.47,2.42,.6,1,.91,2.26,.91,3.74,0,1.11-.27,2.17-.79,3.17-.52,.99-1.47,1.86-2.82,2.61-1.39,.76-3.32,1.39-5.74,1.85-2.43,.47-5.58,.71-9.36,.71-1.63,0-3.1-.01-4.5-.04h0c-1.29-.02-2.63-.08-3.99-.18,.09-1.99,.49-3.93,1.18-5.77,.74-1.97,1.79-3.74,3.13-5.26,1.33-1.52,3-2.75,4.96-3.64,1.96-.9,4.25-1.35,6.82-1.35Z"/><path class="b" d="M305.75,140.57c-.89-.86-1.97-1.3-3.21-1.3s-2.3,.44-3.17,1.31c-.87,.87-1.31,1.93-1.31,3.17s.44,2.32,1.3,3.21c.87,.9,1.94,1.35,3.18,1.35s2.32-.45,3.21-1.35c.9-.9,1.35-1.98,1.35-3.21s-.46-2.31-1.35-3.18h0Z"/><rect class="b" x="299.41" y="152.67" width="6.43" height="43.7" rx=".43" ry=".43"/><path class="b" d="M350.42,193.45l-2.28-4.13c-.05-.1-.15-.18-.25-.2-.11-.04-.23-.02-.34,.04-.88,.49-2.15,1.08-3.79,1.75-1.6,.65-3.88,.98-6.8,.98-2.31,0-4.52-.33-6.57-.99-2.04-.65-3.83-1.66-5.33-2.99-1.49-1.33-2.69-3.07-3.56-5.2-.87-2.13-1.32-4.71-1.32-7.68s.4-5.38,1.19-7.48c.79-2.09,1.9-3.84,3.31-5.2,1.41-1.36,3.1-2.37,5.03-3.02,1.94-.66,4.1-.99,6.4-.99,3.01,0,5.55,.44,7.54,1.31,1.01,.44,1.91,.89,2.66,1.33,.19,.11,.43,.07,.57-.12l2.89-3.94c.12-.16,.11-.39-.02-.54-.25-.29-.49-.5-.7-.65-.56-.5-1.84-1.1-4.02-1.9-2.12-.77-5.09-1.16-8.83-1.16-3.29,0-6.38,.51-9.17,1.5-2.8,1-5.24,2.49-7.24,4.44-2,1.95-3.6,4.36-4.74,7.19-1.14,2.82-1.72,6.07-1.72,9.65s.58,6.62,1.72,9.36c1.14,2.74,2.74,5.09,4.74,6.98,2,1.89,4.42,3.34,7.2,4.31,2.76,.97,5.77,1.46,8.95,1.46,3.51,0,6.39-.36,8.57-1.08,2.15-.71,4.08-1.53,5.72-2.43,.1-.06,.18-.15,.21-.26,.03-.11,.02-.23-.04-.33Z"/><path class="b" d="M292.5,152.69c-1.49-.23-3.1-.35-4.79-.35-5.75,0-10.19,1.4-13.21,4.15-3.02,2.76-4.56,6.72-4.56,11.75v27.7c0,.24,.19,.43,.43,.43h5.61c.24,0,.43-.19,.43-.43v-25.07c0-2.06,.2-3.91,.58-5.51,.38-1.57,1.03-2.89,1.95-3.94,.91-1.04,2.12-1.85,3.6-2.39,1.51-.55,3.42-.82,5.67-.82,1.14,0,2.25,.08,3.29,.23,.22,.03,.44-.12,.48-.35l.86-4.9c.02-.11,0-.23-.07-.33-.07-.09-.17-.16-.28-.17Z"/><path class="b" d="M261.66,190.78c-.04-.11-.13-.2-.24-.25-.12-.05-.24-.04-.34,0-.51,.23-.99,.43-1.48,.61-1.41,.54-2.94,.82-4.57,.82-2.53,0-4.6-.62-6.14-1.85-1.52-1.2-2.28-3.33-2.28-6.32v-25.23h13.65c.24,0,.43-.19,.43-.43v-5.06c0-.24-.19-.43-.43-.43h-13.65v-8.99c0-.24-.19-.43-.43-.43h-5.57c-.24,0-.43,.19-.43,.43v8.93h-6.19c-.24,0-.43,.19-.43,.43v5.13c0,.24,.19,.43,.43,.43h6.19v26.15c0,1.84,.28,3.57,.83,5.12,.55,1.57,1.39,2.94,2.5,4.08,1.11,1.14,2.52,2.04,4.21,2.67,1.67,.63,3.68,.96,5.97,.96,1.59,0,3.08-.13,4.42-.39,1.34-.26,2.53-.59,3.54-.99,.47-.19,.92-.38,1.35-.58,.2-.09,.3-.33,.22-.54l-1.55-4.27Z"/></g><g><path class="b" d="M123.88,29.82c-3.14-2.63-6.89-4.62-11.13-5.91-4.22-1.28-8.84-1.92-13.71-1.92-6.9,0-13.25,1.53-18.87,4.53-5.22,2.79-9.47,6.84-12.65,12.03-3.18-5.4-7.48-9.5-12.77-12.2-5.68-2.89-12.16-4.36-19.26-4.36-4.99,0-9.69,.68-13.96,2.01-4.3,1.34-8.1,3.38-11.29,6.07-3.2,2.7-5.74,6.09-7.53,10.07-1.79,3.97-2.7,8.65-2.7,13.89v47.93c0,3.44,2.81,6.25,6.25,6.25h.01c3.44,0,6.25-2.81,6.25-6.25V59.12c0-4.7,.59-8.75,1.76-12.04,1.15-3.26,2.83-5.97,4.97-8.06,2.14-2.09,4.68-3.63,7.56-4.57,2.91-.95,6.17-1.44,9.68-1.44s6.61,.51,9.58,1.52c2.93,1,5.5,2.59,7.64,4.73,2.15,2.15,3.88,4.98,5.14,8.4,1.27,3.45,1.92,7.69,1.92,12.6v41.69c0,3.44,2.81,6.25,6.25,6.25h.01c3.44,0,6.25-2.81,6.25-6.25V60.27c0-4.91,.65-9.15,1.92-12.6,1.27-3.42,3.02-6.25,5.22-8.39,2.2-2.14,4.8-3.74,7.73-4.73,2.97-1.01,6.19-1.52,9.58-1.52,6.98,0,12.76,1.97,17.18,5.87,4.39,3.87,6.61,10.51,6.61,19.73v43.34c0,3.44,2.81,6.25,6.25,6.25h.01c3.44,0,6.25-2.81,6.25-6.25V53.54c0-5.24-.91-9.88-2.7-13.81-1.8-3.93-4.3-7.26-7.45-9.9Z"/><path class="b" d="M353.94,31.96c-3.35-3.13-7.51-5.59-12.36-7.32-4.83-1.72-10.32-2.59-16.29-2.59s-11.43,.87-16.21,2.59c-4.8,1.73-8.93,4.19-12.28,7.32-3.36,3.14-5.97,6.94-7.76,11.3-1.79,4.35-2.69,9.21-2.69,14.44v44.32c0,3.44,2.82,6.26,6.26,6.26h0c3.44,0,6.26-2.82,6.26-6.26V60.98c0-8.83,2.19-15.77,6.52-20.63,4.3-4.83,11-7.27,19.9-7.27s15.63,2.45,19.99,7.28c4.38,4.86,6.6,11.79,6.6,20.62v41.03c0,3.44,2.82,6.26,6.26,6.26h0c3.44,0,6.26-2.82,6.26-6.26V57.7c0-5.23-.91-10.08-2.69-14.44-1.79-4.36-4.4-8.16-7.76-11.3Z"/><path class="b" d="M451.49,23.81h0c-3.44,0-6.26,2.82-6.26,6.26v39.9c0,8.83-2.19,15.77-6.52,20.63-4.3,4.83-11,7.27-19.9,7.27s-15.63-2.45-19.99-7.28c-4.38-4.86-6.6-11.79-6.6-20.62V30.07c0-3.44-2.82-6.26-6.26-6.26h0c-3.44,0-6.26,2.82-6.26,6.26v43.19c0,5.23,.91,10.08,2.69,14.44,1.79,4.36,4.4,8.16,7.76,11.3,3.35,3.13,7.51,5.59,12.36,7.32,4.83,1.72,10.32,2.59,16.29,2.59s11.43-.87,16.21-2.59c4.8-1.73,8.93-4.19,12.28-7.32,3.36-3.14,5.97-6.94,7.76-11.3,1.79-4.35,2.69-9.21,2.69-14.44V30.07c0-3.44-2.82-6.26-6.26-6.26Z"/><g><path class="b" d="M162.75,109.31c-24.64-25.75-23.73-66.74,2.02-91.38C184.94-1.37,215.19-5.45,239.6,7.44c1.88,.99,2.53,3.36,1.43,5.18l-.07,.11c-1.46,2.4-4.52,3.37-7.05,2.13-22.13-10.89-49.43-5.89-66.23,13.3-18.19,20.78-18.11,52.41,.16,73.12,20.93,23.72,57.3,25.07,79.94,3.41,16.87-16.14,21.71-41.05,12.56-62.12-1.15-2.65-.18-5.74,2.35-7.13l.11-.06c1.86-1.02,4.2-.26,5.11,1.66,11.8,24.95,6.39,55-13.78,74.3-25.75,24.64-66.74,23.73-91.38-2.02Z"/><path class="b" d="M178.71,94.04c-16.22-16.95-15.62-43.94,1.33-60.15,16.95-16.22,43.94-15.62,60.15,1.33,16.22,16.95,15.62,43.94-1.33,60.16-16.95,16.22-43.94,15.62-60.15-1.33Zm54.85-52.47c-12.72-13.29-33.87-13.76-47.16-1.04-13.29,12.72-13.76,33.87-1.04,47.16,12.72,13.29,33.87,13.76,47.16,1.04,13.29-12.72,13.76-33.87,1.04-47.17Z"/><path class="b" d="M194.69,78.75c-7.79-8.14-7.5-21.09,.64-28.88,8.14-7.79,21.09-7.5,28.88,.64,7.79,8.14,7.5,21.09-.64,28.88-8.14,7.79-21.09,7.5-28.88-.64Zm22.88-21.89c-4.28-4.48-11.41-4.63-15.89-.35-4.48,4.28-4.63,11.41-.35,15.89s11.41,4.63,15.89,.35c4.48-4.28,4.63-11.41,.35-15.89Z"/><circle class="c" cx="252.84" cy="23.11" r="7.85"/></g></g></svg>