<?xml version="1.0" encoding="UTF-8"?><svg viewBox="0 0 194 127" xmlns="http://www.w3.org/2000/svg"><g fill="#FFF" fill-rule="evenodd"><path fill-rule="nonzero" d="M180.625 126.816h-4.384v-10.754h-6.454v-3.575h17.275v3.575h-6.437zM166.431 126.816h-6.989l-8.717-10.771v10.771h-4.122v-14.329h6.989l8.711 10.748v-10.748h4.128zM126.024 112.487h16.107v3.253h-11.723v2.464h10.944v2.832h-10.944v2.556h11.723v3.224h-16.107z"/><path d="M117.162 126.816h-14.356v-14.323h12.728c5.158 0 6.612 1.261 6.612 6.436v.818c0 1.116 0 2.279-.175 3.373-.43 2.493-2.297 3.696-4.809 3.696zm-9.972-10.817v7.317h7.414c2.907 0 3.099-1.1 3.099-3.616v-.132c0-2.452-.041-3.569-3.035-3.569h-7.478zM95.531 126.816l-1.366-2.591h-9.333l-1.43 2.591h-4.897l8.06-14.329h5.937l7.885 14.329h-4.856zm-6.07-11.243l-3.1 5.693h6.199l-3.1-5.693zM61.928 126.816h-4.39v-14.335h13.438c3.407 0 4.838 1.071 4.838 4.531 0 .996-.064 2.095-.605 2.953-.474.733-1.295.981-2.094 1.222-.143.043-.285.086-.424.131 1.85.236 2.954.771 2.954 2.752v2.746h-4.466v-1.365c0-1.577-.064-2.308-1.907-2.308h-7.344v3.673zm0-10.852v3.708h7.21c2.059 0 2.233-.409 2.233-2.004-.017-.754-.04-1.335-.866-1.571-.39-.11-.843-.133-1.256-.133h-7.321z"/><path fill-rule="nonzero" d="M47.676 126.816H43.29v-10.754h-6.454v-3.575h17.27v3.575h-6.431zM27.742 123.241h9.99v3.575H23.358v-14.329h4.384zM18.723 112.522v9.009c0 4.83-2.942 5.469-7.216 5.469-1.192 0-2.407-.023-3.605-.023-4.6 0-7.751-.167-7.751-5.665v-8.796h4.384v7.501c.087 2.688.239 3.379 3.146 3.443l1.977.023 1.826-.023c2.477 0 2.756-.691 2.82-2.821v-8.123h4.42v.006zM193.031 1.553l-1.115 3-1.121-2.93-.028-.07h-.969v4.18h.712V2.68l1.176 3.053h.426l1.177-3.053v3.053H194v-4.18zM186.173 2.213h1.233v3.52h.711v-3.52h1.233v-.66h-3.177z"/><path d="M173.828 0c6.484 0 13.066 7 13.066 13.862l.07 46.872c0 3.517-2.879 6.367-6.431 6.367l-43.507-.017c-3.483-.075-6.35-2.885-6.35-6.35V44.92c0-3.408 2.797-6.35 6.275-6.35h13.031c2.814 0 5.082-2.343 4.907-5.17-.157-2.601-2.465-4.57-5.099-4.57h-21.265c-3.791 0-6.867 3.045-6.867 6.799V89.84c0 7-6.583 14.024-13.06 14.024H12.932C6.454 103.864-.018 96.84 0 89.84.017 84.976 0 5.768 0 5.768 0 2.608 2.588.046 5.78.046h44.664c3.192 0 5.78 2.562 5.78 5.722v51.16c0 2.7 2.366 4.848 5.157 4.526 2.344-.277 4.041-2.378 4.041-4.715V5.774c0-3.16 2.588-5.722 5.78-5.722 0 0 88.909-.052 102.626-.052zm13.066 97.49l.012-14.91c0-3.517-2.879-6.366-6.431-6.36h-43.617c-3.483.08-6.286 2.901-6.286 6.367v14.91c0 3.465 2.803 6.269 6.286 6.349l43.605.012c3.553 0 6.431-2.85 6.431-6.367z"/></g></svg>